# xmcd CD database file
#
# Track frame offsets:
#	150
#	17205
#	44277
#	64508
#	88548
#	112499
#	124232
#	140582
#	153203
#
# Disc length: 2259 seconds
#
# Revision: 0
# Processed by: cddbd v1.5.2PL0 Copyright (c) Steve Scherf et al.
# Submitted via: CDex 1.51
#
DISCID=7a08d109
DTITLE=Iman, Lucia - Lucia Iman
DYEAR=2006
DGENRE=Jazz
TTITLE0=Mr. Green
TTITLE1=Dreaming
TTITLE2=Somewhere
TTITLE3=Submarine
TTITLE4=Listening
TTITLE5=Sunrise
TTITLE6=Angel
TTITLE7=Nana
TTITLE8=Time To Go
EXTD=YEAR: 2006
EXTT0=
EXTT1=
EXTT2=
EXTT3=
EXTT4=
EXTT5=
EXTT6=
EXTT7=
EXTT8=
PLAYORDER=
